<svg width="73" height="76" viewBox="0 0 73 76" fill="none" xmlns="http://www.w3.org/2000/svg">
<path d="M36.7667 24L26 51.0491H54.1818C54.6725 51.0491 55.1222 50.7529 55.3231 50.2964L65.743 24H36.7667Z" fill="url(#paint0_linear_1_23)"/>
<path d="M64.849 24.3495L54.422 50.0945C54.221 50.5405 53.772 50.8315 53.28 50.8315H55.831C56.322 50.8315 56.772 50.5415 56.973 50.0945L67.4 24.3495H64.849Z" fill="url(#paint1_linear_1_23)"/>
<path d="M67.895 23.3735C67.777 23.2015 67.583 23.0965 67.375 23.0965H37.028C36.773 23.0965 36.543 23.2525 36.448 23.4885L25.323 50.8315H5.253V50.0725C5.253 49.0365 6.095 48.1945 7.134 48.1945H24.994V46.9385H7.134C5.406 46.9385 4 48.3445 4 50.0725V51.4595C4 51.8035 4.281 52.0845 4.625 52.0845H54.875C55.857 52.0845 56.756 51.5075 57.171 50.5895L67.955 23.9605C68.032 23.7655 68.009 23.5455 67.895 23.3735ZM56.017 50.0945C55.816 50.5405 55.367 50.8315 54.875 50.8315H26.675L37.45 24.3495H66.445L56.017 50.0945Z" fill="url(#paint2_linear_1_23)"/>
<path fill-rule="evenodd" clip-rule="evenodd" d="M13.25 42.3333C15.438 42.3333 17.5365 41.4641 19.0836 39.917C20.6308 38.3698 21.5 36.2714 21.5 34.0833C21.5 31.8953 20.6308 29.7969 19.0836 28.2497C17.5365 26.7025 15.438 25.8333 13.25 25.8333C11.062 25.8333 8.96354 26.7025 7.41637 28.2497C5.86919 29.7969 5 31.8953 5 34.0833C5 36.2714 5.86919 38.3698 7.41637 39.917C8.96354 41.4641 11.062 42.3333 13.25 42.3333ZM13.25 40.9583C12.4216 40.9583 11.2654 40.817 10.5 40.5C9.73462 40.183 8.79413 39.7108 8.20833 39.125C7.62254 38.5392 7.15037 37.5987 6.83333 36.8333C6.5163 36.068 6.375 34.9118 6.375 34.0833C6.375 33.2549 6.5163 32.0987 6.83333 31.3333C7.15037 30.568 7.63497 29.615 8.20833 29.0417C8.45958 28.7904 9.73462 27.9837 10.5 27.6667C11.2654 27.3496 12.4216 27 13.25 27C14.9231 27 17.1086 28.3169 18.2917 29.5C19.4747 30.6831 20.125 32.4102 20.125 34.0833C20.5833 35.9167 18.75 38.6667 17.375 39.5833C16.1919 40.7664 14.9231 40.9583 13.25 40.9583ZM16.9167 41.4167L19.6667 45.0833H21.5L18.75 41.4167H16.9167Z" fill="#7B00FF"/>
<path d="M44.699 42V34.7273H42.2416C41.6711 34.7273 41.2047 34.8303 40.8425 35.0362C40.4779 35.2398 40.208 35.5156 40.0328 35.8636C39.8576 36.2116 39.77 36.5999 39.77 37.0284C39.77 37.4569 39.8576 37.8464 40.0328 38.1967C40.2056 38.5471 40.4732 38.8265 40.8354 39.0348C41.1976 39.2408 41.6616 39.3438 42.2274 39.3438H43.9888V38.5625H42.2558C41.8652 38.5625 41.5515 38.495 41.3148 38.3601C41.078 38.2251 40.9064 38.0429 40.7999 37.8132C40.691 37.5812 40.6365 37.3196 40.6365 37.0284C40.6365 36.7372 40.691 36.4768 40.7999 36.2472C40.9064 36.0175 41.0792 35.8376 41.3183 35.7074C41.5574 35.5748 41.8747 35.5085 42.27 35.5085H43.8183V42H44.699Z" fill="url(#paint3_linear_1_23)"/>
<path d="M49.8807 42V34.7273H50.7614V41.2188H54.142V42H49.8807Z" fill="url(#paint4_linear_1_23)"/>
<path d="M43.8807 34.7273H44.9318L47.4034 40.7642H47.4886L49.9602 34.7273H51.0114V42H50.1875V36.4744H50.1165L47.8438 42H47.0483L44.7756 36.4744H44.7045V42H43.8807V34.7273Z" fill="url(#paint5_linear_1_23)"/>
<defs>
<linearGradient id="paint0_linear_1_23" x1="-32.5" y1="41.5492" x2="-13.5" y2="68.5492" gradientUnits="userSpaceOnUse">
<stop stop-color="#7B00FF"/>
<stop offset="0.549464" stop-color="#BD00A7"/>
<stop offset="1" stop-color="#FF00D0"/>
</linearGradient>
<linearGradient id="paint1_linear_1_23" x1="60.34" y1="24.3495" x2="60.34" y2="50.8315" gradientUnits="userSpaceOnUse">
<stop stop-color="#A856FF"/>
<stop offset="1" stop-color="#270051"/>
</linearGradient>
<linearGradient id="paint2_linear_1_23" x1="52.23" y1="54" x2="29.73" y2="34" gradientUnits="userSpaceOnUse">
<stop stop-color="#FF00D0"/>
<stop offset="0.375" stop-color="#BD00A7"/>
<stop offset="1" stop-color="#7B00FF"/>
</linearGradient>
<linearGradient id="paint3_linear_1_23" x1="39.4285" y1="45.5" x2="49.4356" y2="42.3463" gradientUnits="userSpaceOnUse">
<stop stop-color="#270051"/>
<stop offset="0.413462" stop-color="#6023A1"/>
<stop offset="1" stop-color="#A34DFF"/>
</linearGradient>
<linearGradient id="paint4_linear_1_23" x1="55.1512" y1="45.5" x2="45.1441" y2="42.3463" gradientUnits="userSpaceOnUse">
<stop stop-color="#270051"/>
<stop offset="0.413462" stop-color="#6023A1"/>
<stop offset="1" stop-color="#A34DFF"/>
</linearGradient>
<linearGradient id="paint5_linear_1_23" x1="52.6662" y1="45.5" x2="38.7837" y2="38.6249" gradientUnits="userSpaceOnUse">
<stop stop-color="#270051"/>
<stop offset="0.413462" stop-color="#6023A1"/>
<stop offset="1" stop-color="#A34DFF"/>
</linearGradient>
</defs>
</svg>
